<?xml version="1.0" encoding="utf-8"?>
<!-- Generator: Adobe Illustrator 26.3.1, SVG Export Plug-In . SVG Version: 6.00 Build 0)  -->
<svg version="1.0" id="Calque_1" xmlns="http://www.w3.org/2000/svg" xmlns:xlink="http://www.w3.org/1999/xlink" x="0px" y="0px"
	 viewBox="0 0 1000 400" style="enable-background:new 0 0 1000 400;" xml:space="preserve">
<style type="text/css">
	.st0{fill:#AED1AA;}
	.st1{fill:#C7D29B;}
	.st2{fill:#87BBA2;}
	.st3{fill:#3C3C3B;}
	.st4{fill:#77AA90;}
</style>
<rect x="395.271" y="223.991" class="st0" width="38.19" height="37.296"/>
<rect x="189.519" y="50.486" class="st1" width="38.327" height="37.445"/>
<rect x="538.718" y="224.02" class="st2" width="38.327" height="37.428"/>
<polygon class="st3" points="76.784,50.487 6.955,261.448 46.721,261.448 97.948,106.683 149.175,261.448 188.935,261.448 
	119.112,50.487 "/>
<polygon class="st3" points="880.496,50.487 810.678,261.448 850.433,261.448 901.66,106.683 952.887,261.448 992.647,261.448 
	922.824,50.487 "/>
<polygon class="st3" points="254.642,50.487 254.642,261.448 367.211,261.448 367.211,224.02 292.969,224.02 292.969,50.487 "/>
<polygon class="st3" points="394.328,50.487 394.328,87.932 468.564,87.932 468.564,261.448 506.891,261.448 506.891,50.487 "/>
<polygon class="st3" points="634.449,50.487 634.449,261.448 756.038,261.448 756.038,224.02 672.776,224.02 672.776,87.932 
	756.038,87.932 756.038,50.487 "/>
<rect x="538.763" y="50.486" class="st3" width="38.322" height="37.445"/>
<rect x="717.712" y="137.262" class="st3" width="38.327" height="37.428"/>
<g>
	<path class="st4" d="M120.042,335.408h-9.61v-12.287h9.347c0.774,0,1.513,0.166,2.218,0.487c0.693,0.315,1.307,0.768,1.828,1.33
		c0.521,0.579,0.94,1.226,1.255,1.948c0.315,0.739,0.464,1.524,0.464,2.361c0,0.802-0.126,1.582-0.401,2.338
		c-0.269,0.734-0.642,1.398-1.117,1.96c-0.476,0.579-1.049,1.02-1.719,1.358C121.629,335.242,120.884,335.408,120.042,335.408
		 M125.704,336.824c0.814-0.562,1.519-1.226,2.103-2.006c0.579-0.768,1.026-1.639,1.341-2.602c0.309-0.957,0.47-1.948,0.47-2.969
		c0-1.163-0.241-2.315-0.716-3.438c-0.476-1.123-1.14-2.126-1.989-3.037c-0.854-0.905-1.868-1.61-3.043-2.155
		c-1.181-0.55-2.464-0.814-3.874-0.814h-13.593v29.536h4.029v-10.613h8.401l7.249,10.613h4.562l-7.691-11.318
		C123.967,337.77,124.879,337.368,125.704,336.824"/>
</g>
<polygon class="st4" points="202.874,319.801 202.874,349.343 224.439,349.343 224.439,346.025 206.903,346.025 206.903,335.818 
	221.797,335.818 221.797,332.706 206.903,332.706 206.903,323.125 224.038,323.125 224.038,319.801 "/>
<polygon class="st4" points="214.691,311.223 212.089,315.43 214.691,316.255 218.616,311.223 "/>
<g>
	<path class="st4" d="M316.103,335.702c-0.94-0.648-2.069-1.181-3.393-1.61c-1.33-0.43-2.814-0.814-4.453-1.135
		c-1.433-0.309-2.676-0.607-3.719-0.888c-1.043-0.264-1.908-0.602-2.613-0.974c-0.699-0.367-1.215-0.825-1.542-1.341
		c-0.327-0.533-0.493-1.198-0.493-2.006c0-1.496,0.579-2.676,1.725-3.53c1.152-0.871,2.957-1.301,5.433-1.301
		c0.951,0,1.868,0.092,2.751,0.281c0.877,0.178,1.696,0.413,2.436,0.711c0.745,0.281,1.421,0.602,2.017,0.974
		c0.596,0.355,1.072,0.739,1.427,1.123l1.88-3.043c-1.341-1.02-2.877-1.845-4.608-2.453c-1.731-0.602-3.662-0.911-5.811-0.911
		c-1.639,0-3.169,0.189-4.562,0.556c-1.41,0.372-2.608,0.934-3.622,1.685c-1.02,0.751-1.805,1.668-2.373,2.745
		c-0.567,1.077-0.854,2.332-0.854,3.754c0,1.163,0.212,2.155,0.625,2.991c0.424,0.831,1.037,1.536,1.863,2.115
		c0.814,0.59,1.84,1.089,3.06,1.507c1.221,0.413,2.642,0.797,4.252,1.163c1.461,0.327,2.768,0.648,3.914,0.974
		c1.14,0.327,2.109,0.682,2.883,1.106c0.774,0.413,1.364,0.9,1.765,1.479c0.401,0.562,0.607,1.267,0.607,2.097
		c0,1.501-0.63,2.625-1.885,3.364c-1.244,0.751-3.003,1.123-5.272,1.123c-1.226,0-2.395-0.12-3.513-0.355
		c-1.117-0.224-2.16-0.533-3.129-0.917c-0.968-0.367-1.84-0.797-2.59-1.255c-0.768-0.47-1.387-0.946-1.862-1.415l-1.92,3.158
		c1.782,1.358,3.782,2.395,5.971,3.1c2.189,0.711,4.51,1.066,6.951,1.066c1.639,0,3.158-0.166,4.567-0.487
		c1.398-0.309,2.613-0.814,3.639-1.49c1.032-0.682,1.845-1.536,2.441-2.585c0.596-1.037,0.894-2.258,0.894-3.679
		c0-1.341-0.241-2.464-0.745-3.381C317.759,337.106,317.049,336.338,316.103,335.702"/>
</g>
<rect x="391.357" y="319.804" class="st4" width="4.029" height="29.542"/>
<g>
	<path class="st4" d="M491.618,339.08c-0.493,1.404-1.209,2.613-2.149,3.65c-0.94,1.02-2.115,1.828-3.536,2.407
		c-1.415,0.59-3.032,0.883-4.854,0.883h-6.974v-22.894h6.974c1.794,0,3.387,0.292,4.785,0.854c1.404,0.579,2.59,1.358,3.559,2.35
		c0.969,1.003,1.702,2.201,2.195,3.599c0.487,1.404,0.739,2.94,0.739,4.608C492.357,336.174,492.105,337.681,491.618,339.08
		 M492.575,324.128c-1.284-1.33-2.888-2.39-4.808-3.158c-1.926-0.785-4.155-1.169-6.688-1.169h-11.003v29.542h11.003
		c2.327,0,4.436-0.355,6.333-1.066c1.891-0.705,3.507-1.696,4.854-2.997c1.335-1.284,2.367-2.831,3.083-4.648
		c0.716-1.817,1.072-3.851,1.072-6.098c0-2.023-0.315-3.943-0.957-5.725C494.821,327.022,493.858,325.458,492.575,324.128"/>
</g>
<polygon class="st4" points="569.194,319.801 569.194,349.343 590.759,349.343 590.759,346.025 573.223,346.025 573.223,335.818 
	588.117,335.818 588.117,332.706 573.223,332.706 573.223,323.125 590.357,323.125 590.357,319.801 "/>
<polygon class="st4" points="663.342,319.801 663.342,349.343 667.371,349.343 667.371,326.786 686.775,349.343 690.179,349.343 
	690.179,319.847 686.156,319.847 686.156,342.821 666.465,319.801 "/>
<g>
	<path class="st4" d="M785.251,343.378c-0.705,0.648-1.45,1.181-2.258,1.61c-0.802,0.441-1.65,0.751-2.527,0.946
		c-0.883,0.189-1.736,0.292-2.573,0.292c-1.582,0-3.037-0.327-4.384-0.957c-1.341-0.636-2.504-1.507-3.484-2.585
		c-0.986-1.077-1.754-2.315-2.304-3.719c-0.556-1.404-0.831-2.883-0.831-4.43c0-1.387,0.235-2.774,0.693-4.149
		c0.458-1.37,1.158-2.596,2.08-3.708c0.928-1.089,2.069-1.977,3.421-2.653c1.358-0.682,2.917-1.02,4.676-1.02
		c0.802,0,1.628,0.092,2.458,0.252c0.837,0.16,1.645,0.441,2.441,0.825c0.785,0.401,1.519,0.9,2.189,1.553
		c0.671,0.63,1.238,1.415,1.725,2.361l3.175-1.908c-0.986-1.914-2.493-3.467-4.522-4.665c-2.023-1.192-4.459-1.782-7.289-1.782
		c-2.384,0-4.516,0.424-6.396,1.284c-1.88,0.854-3.467,1.994-4.762,3.393c-1.301,1.404-2.281,2.986-2.951,4.739
		c-0.676,1.759-1.009,3.53-1.009,5.301c0,1.891,0.361,3.748,1.095,5.565c0.728,1.817,1.765,3.438,3.083,4.86
		c1.335,1.433,2.906,2.596,4.728,3.484c1.811,0.883,3.817,1.324,5.989,1.324c1.221,0,2.47-0.143,3.759-0.453
		c1.284-0.309,2.493-0.756,3.639-1.33c1.152-0.59,2.178-1.301,3.095-2.143c0.906-0.854,1.616-1.828,2.12-2.934l-3.352-1.714
		C786.529,341.928,785.956,342.713,785.251,343.378"/>
</g>
<polygon class="st4" points="862.47,319.801 862.47,349.343 884.029,349.343 884.029,346.025 866.499,346.025 866.499,335.818 
	881.393,335.818 881.393,332.706 866.499,332.706 866.499,323.125 883.628,323.125 883.628,319.801 "/>
</svg>
